<svg width="31" height="116" viewBox="0 0 31 116" fill="none" xmlns="http://www.w3.org/2000/svg"><path d="M29.2488 111.595L23.7174 111.595L23.7174 97.7103L29.2488 97.7103L29.2488 111.595ZM6.92403 111.595L1.39258 111.595L1.39258 97.7103L6.92403 97.7103L6.92403 111.595ZM17.3105 111.595L11.8984 111.595L11.8984 98.497L17.3105 98.497L17.3105 111.595ZM1.39258 116L1.39258 109.628L29.2488 109.628L29.2488 116L1.39258 116Z" fill="black"/><path d="M18.0268 80.5793L1.39258 73.8534L1.39258 66.0656L30.9998 80.5793L1.39258 95.0537L1.39258 87.3052L18.0268 80.5793Z" fill="black"/><path d="M19.4594 59.9552C20.4675 59.4045 21.343 58.7883 22.0858 58.1065C22.8286 57.3985 23.399 56.6381 23.797 55.8252C24.1949 54.9861 24.3939 54.1077 24.3939 53.1899C24.3939 52.2197 24.1551 51.42 23.6776 50.7907C23.1735 50.1613 22.497 49.8467 21.6481 49.8467C20.9318 49.8467 20.3614 50.0302 19.9369 50.3973C19.4859 50.7644 19.0614 51.3544 18.6635 52.1673C18.2655 52.9802 17.8145 54.0553 17.3105 55.3926C17.0717 56.0481 16.7401 56.8086 16.3156 57.6739C15.8911 58.513 15.3472 59.3127 14.684 60.0732C13.9942 60.8336 13.1718 61.4629 12.2167 61.9611C11.2351 62.4593 10.0546 62.7085 8.67498 62.7085C7.03014 62.7085 5.6108 62.2889 4.41696 61.4498C3.22312 60.5845 2.32111 59.4307 1.71093 57.9885C1.07421 56.5201 0.755859 54.8944 0.755859 53.1113C0.755859 51.2758 1.06095 49.6893 1.67113 48.352C2.28132 46.9885 3.05068 45.861 3.97922 44.9694C4.90776 44.0779 5.84957 43.3961 6.80464 42.9241L9.66985 47.998C9.0066 48.3914 8.43621 48.8502 7.95868 49.3747C7.45461 49.8729 7.06993 50.4367 6.80464 51.066C6.51281 51.6691 6.36689 52.3246 6.36689 53.0326C6.36689 53.9766 6.57913 54.6977 7.00361 55.1959C7.40155 55.6941 7.90562 55.9432 8.5158 55.9432C9.15252 55.9432 9.70964 55.7072 10.1872 55.2352C10.6648 54.737 11.1025 54.0422 11.5004 53.1506C11.8984 52.2329 12.3229 51.1315 12.7739 49.8467C13.1453 48.8765 13.583 47.9718 14.0871 47.1327C14.5646 46.2936 15.1483 45.5594 15.8381 44.9301C16.5278 44.2745 17.3237 43.7632 18.2257 43.3961C19.1277 43.029 20.1624 42.8455 21.3297 42.8455C22.7358 42.8455 23.9959 43.1339 25.1102 43.7108C26.1979 44.2614 27.1132 45.0219 27.856 45.9921C28.5989 46.9361 29.156 48.0243 29.5274 49.2567C29.9253 50.4629 30.1243 51.7084 30.1243 52.9933C30.1243 54.7764 29.806 56.4414 29.1692 57.9885C28.506 59.5094 27.6173 60.8336 26.503 61.9611C25.3888 63.0887 24.1684 63.9671 22.8419 64.5964L19.4594 59.9552Z" fill="black"/><path d="M1.39258 38.2043L1.39258 31.4391L29.2488 31.4391L29.2488 38.2043L1.39258 38.2043Z" fill="black"/><path d="M1.39281 6.41104L1.39281 3.80861e-05L30.6418 3.68076e-05L13.57 19.037L29.249 19.037L29.249 25.4089L0 25.4089L17.0719 6.41104L1.39281 6.41104Z" fill="black"/></svg>