<svg width="116" height="31" viewBox="0 0 116 31" fill="none" xmlns="http://www.w3.org/2000/svg"><path d="M4.40526 29.249L4.40526 23.7176L18.2897 23.7176L18.2897 29.249L4.40526 29.249ZM4.40527 6.92426L4.40527 1.39281L18.2897 1.39281L18.2897 6.92426L4.40527 6.92426ZM4.40527 17.3107L4.40527 11.8986L17.503 11.8986L17.503 17.3107L4.40527 17.3107ZM-6.088e-08 1.39281L6.37189 1.39281L6.37189 29.249L-1.27851e-06 29.249L-6.088e-08 1.39281Z" fill="black"/><path d="M35.4206 18.027L42.1465 1.39281L49.9343 1.39281L35.4206 31L20.9462 1.39281L28.6947 1.39281L35.4206 18.027Z" fill="black"/><path d="M56.0447 19.4596C56.5954 20.4677 57.2116 21.3432 57.8934 22.086C58.6014 22.8288 59.3618 23.3992 60.1747 23.7972C61.0138 24.1951 61.8922 24.3941 62.81 24.3941C63.7802 24.3941 64.5799 24.1553 65.2092 23.6778C65.8386 23.1737 66.1532 22.4972 66.1532 21.6483C66.1532 20.932 65.9697 20.3616 65.6026 19.9371C65.2355 19.4861 64.6455 19.0616 63.8326 18.6637C63.0197 18.2657 61.9446 17.8147 60.6073 17.3107C59.9518 17.0719 59.1913 16.7403 58.326 16.3158C57.4869 15.8913 56.6872 15.3474 55.9267 14.6842C55.1663 13.9944 54.537 13.172 54.0388 12.2169C53.5406 11.2353 53.2914 10.0548 53.2914 8.67522C53.2914 7.03038 53.711 5.61104 54.5501 4.4172C55.4154 3.22336 56.5692 2.32135 58.0114 1.71117C59.4798 1.07445 61.1055 0.756096 62.8886 0.756096C64.7241 0.756096 66.3106 1.06119 67.6479 1.67137C69.0114 2.28156 70.1389 3.05092 71.0305 3.97946C71.922 4.908 72.6038 5.84981 73.0758 6.80488L68.0019 9.67009C67.6085 9.00684 67.1497 8.43645 66.6252 7.95892C66.127 7.45485 65.5632 7.07017 64.9339 6.80488C64.3308 6.51305 63.6753 6.36713 62.9673 6.36713C62.0233 6.36713 61.3022 6.57937 60.804 7.00385C60.3058 7.40179 60.0567 7.90586 60.0567 8.51604C60.0567 9.15276 60.2927 9.70988 60.7647 10.1874C61.2629 10.665 61.9577 11.1027 62.8493 11.5006C63.767 11.8986 64.8684 12.3231 66.1532 12.7741C67.1234 13.1455 68.0281 13.5832 68.8672 14.0873C69.7063 14.5648 70.4405 15.1485 71.0698 15.8383C71.7254 16.528 72.2367 17.3239 72.6038 18.2259C72.9709 19.1279 73.1544 20.1626 73.1544 21.3299C73.1544 22.736 72.866 23.9961 72.2891 25.1104C71.7385 26.1981 70.978 27.1134 70.0078 27.8562C69.0638 28.5991 67.9756 29.1562 66.7432 29.5276C65.537 29.9255 64.2915 30.1245 63.0066 30.1245C61.2235 30.1245 59.5585 29.8062 58.0114 29.1694C56.4905 28.5062 55.1663 27.6175 54.0388 26.5032C52.9112 25.389 52.0328 24.1686 51.4035 22.8421L56.0447 19.4596Z" fill="black"/><path d="M77.7957 1.39281L84.5609 1.39281L84.5609 29.249L77.7957 29.249L77.7957 1.39281Z" fill="black"/><path d="M109.589 1.39281L116 1.39281L116 30.6418L96.963 13.57L96.963 29.249L90.5911 29.249L90.5911 -1.11066e-06L109.589 17.0719L109.589 1.39281Z" fill="black"/></svg>