<svg width="22" height="14" viewBox="0 0 22 14" fill="none" xmlns="http://www.w3.org/2000/svg"><path fill-rule="evenodd" clip-rule="evenodd" d="M0.62974 13.8963C0.410863 13.728 0.369916 13.4141 0.538283 13.1952L5.30378 7.00004L0.538283 0.804892C0.369916 0.586014 0.410862 0.272091 0.629739 0.103724C0.848616 -0.0646429 1.16254 -0.0236969 1.33091 0.195181L6.56541 7.00004L1.33091 13.8049C1.16254 14.0238 0.848617 14.0647 0.62974 13.8963Z" fill="black" fill-opacity="0.8"/><path fill-rule="evenodd" clip-rule="evenodd" d="M7.59543 13.8675C7.39252 13.6802 7.37987 13.3638 7.56717 13.1609L13.2541 7.00006L7.56717 0.839198C7.37987 0.636288 7.39252 0.319958 7.59543 0.132656C7.79834 -0.0546456 8.11467 -0.0419922 8.30197 0.160917L14.615 7.00006L8.30197 13.8392C8.11467 14.0421 7.79834 14.0548 7.59543 13.8675Z" fill="black" fill-opacity="0.5"/><path fill-rule="evenodd" clip-rule="evenodd" d="M15.6297 13.8963C15.4109 13.728 15.3699 13.4141 15.5383 13.1952L20.3038 7.00004L15.5383 0.804892C15.3699 0.586014 15.4109 0.272091 15.6297 0.103724C15.8486 -0.0646429 16.1625 -0.0236969 16.3309 0.195181L21.5654 7.00004L16.3309 13.8049C16.1625 14.0238 15.8486 14.0647 15.6297 13.8963Z" fill="black" fill-opacity="0.2"/></svg>