<?xml version="1.0" encoding="utf-8"?><svg viewBox="0 0 22 14" xmlns="http://www.w3.org/2000/svg" xmlns:xlink="http://www.w3.org/1999/xlink"><style>:root>svg{display:none}:root>svg:target{display:block}</style><svg fill="none" viewBox="0 0 22 14" id="arrow-type-1" xmlns="http://www.w3.org/2000/svg"><path fill-rule="evenodd" clip-rule="evenodd" d="M.63 13.896a.5.5 0 01-.092-.7L5.304 7 .538.805a.5.5 0 11.793-.61L6.565 7l-5.234 6.805a.5.5 0 01-.701.091z" fill="#000" fill-opacity=".8"/><path fill-rule="evenodd" clip-rule="evenodd" d="M7.595 13.867a.5.5 0 01-.028-.706L13.254 7 7.567.838a.5.5 0 01.735-.678L14.615 7l-6.313 6.838a.5.5 0 01-.707.028z" fill="#000" fill-opacity=".5"/><path fill-rule="evenodd" clip-rule="evenodd" d="M15.63 13.896a.5.5 0 01-.092-.7L20.304 7 15.538.805a.5.5 0 01.793-.61L21.565 7l-5.234 6.805a.5.5 0 01-.701.091z" fill="#000" fill-opacity=".2"/></svg><svg viewBox="0 0 18 14" id="checked" xmlns="http://www.w3.org/2000/svg"><path fill-rule="evenodd" clip-rule="evenodd" d="M16.81 1.379a1.5 1.5 0 010 2.121l-9.56 9.56L1.19 7a1.5 1.5 0 112.12-2.121l3.94 3.939 7.44-7.44a1.5 1.5 0 012.12 0z"/></svg></svg>